# xmcd
#
# Track frame offsets:
#	150
#	25702
#	40073
#	59605
#	69278
#	83865
#	98751
#	113798
#
# Disc length: 1716 seconds
#
# Revision: 1
# Processed by: cddbd v1.4PL0 Copyright (c) Steve Scherf et al.
# Submitted via: audiograbber 1.82.01
#
DISCID=5d06b208
DTITLE=Jimmy Page, Sonny Boy Williamson and Brian Auger - Live
DYEAR=1900
DGENRE=Blues
TTITLE0=Don't Send Me No Flowers
TTITLE1=I See A Man Downstairs
TTITLE2=She Was So Dumb
TTITLE3=The Goat
TTITLE4=Walking
TTITLE5=Little Girl, How Old Are You
TTITLE6=It's A Bloody Life
TTITLE7=Getting Out Of Town
EXTD=
EXTT0=
EXTT1=
EXTT2=
EXTT3=
EXTT4=
EXTT5=
EXTT6=
EXTT7=
PLAYORDER=
